<svg width="20" height="20" viewBox="0 0 20 20" fill="none" xmlns="http://www.w3.org/2000/svg">
<g clip-path="url(#clip0_30025_33361)">
<path d="M1.29028 14.5139H1.93544V15.1591H1.29028V14.5139Z" fill="#90A0B7"/>
<path d="M2.58057 14.5139H3.22573V15.1591H2.58057V14.5139Z" fill="#90A0B7"/>
<path d="M9.03223 15.1592H9.67739V15.8043H9.03223V15.1592Z" fill="#90A0B7"/>
<path d="M7.74194 15.1592H8.3871V15.8043H7.74194V15.1592Z" fill="#90A0B7"/>
<path d="M1.29028 9.35254H1.93544V9.9977H1.29028V9.35254Z" fill="#90A0B7"/>
<path d="M2.58057 9.35254H3.22573V9.9977H2.58057V9.35254Z" fill="#90A0B7"/>
<path d="M9.03223 9.9978H9.67739V10.643H9.03223V9.9978Z" fill="#90A0B7"/>
<path d="M7.74194 9.9978H8.3871V10.643H7.74194V9.9978Z" fill="#90A0B7"/>
<path d="M1.29028 4.19141H1.93544V4.83657H1.29028V4.19141Z" fill="#90A0B7"/>
<path d="M2.58057 4.19141H3.22573V4.83657H2.58057V4.19141Z" fill="#90A0B7"/>
<path d="M9.03223 4.83643H9.67739V5.48159H9.03223V4.83643Z" fill="#90A0B7"/>
<path d="M7.74194 4.83643H8.3871V5.48159H7.74194V4.83643Z" fill="#90A0B7"/>
<path d="M19.0323 4.51378H15.7304L14.4401 5.15895H10.9677V3.86862C10.9677 3.33498 10.5335 2.90088 10 2.90088H0.967742C0.434255 2.90088 0 3.33498 0 3.86862V5.80411C0 6.33759 0.434255 6.77185 0.967742 6.77185H1.29032V8.06217H0.967742C0.434255 8.06217 0 8.49627 0 9.02991V10.9654C0 11.4989 0.434255 11.9332 0.967742 11.9332H1.29032V13.2235H0.967742C0.434255 13.2235 0 13.6576 0 14.1912V16.1267C0 16.6602 0.434255 17.0945 0.967742 17.0945H10C10.5335 17.0945 10.9677 16.6602 10.9677 16.1267V15.4815H19.0323C19.5657 15.4815 20 15.0473 20 14.5138V5.48153C20 4.94788 19.5657 4.51378 19.0323 4.51378ZM0.645161 5.80411V3.86862C0.645161 3.69079 0.789756 3.54604 0.967742 3.54604H10C10.178 3.54604 10.3226 3.69079 10.3226 3.86862V5.80411C10.3226 5.98178 10.178 6.12669 10 6.12669H0.967742C0.789756 6.12669 0.645161 5.98178 0.645161 5.80411ZM1.93548 6.77185H9.03226V8.06217H1.93548V6.77185ZM0.645161 10.9654V9.02991C0.645161 8.85209 0.789756 8.70733 0.967742 8.70733H10C10.178 8.70733 10.3226 8.85209 10.3226 9.02991V10.9654C10.3226 11.1431 10.178 11.288 10 11.288H0.967742C0.789756 11.288 0.645161 11.1431 0.645161 10.9654ZM1.93548 11.9332H9.03226V13.2235H1.93548V11.9332ZM10.3226 16.1267C10.3226 16.3044 10.178 16.4493 10 16.4493H0.967742C0.789756 16.4493 0.645161 16.3044 0.645161 16.1267V14.1912C0.645161 14.0134 0.789756 13.8686 0.967742 13.8686H10C10.178 13.8686 10.3226 14.0134 10.3226 14.1912V16.1267ZM19.0323 14.8364H10.9677V14.1912C10.9677 13.6576 10.5335 13.2235 10 13.2235H9.67742V11.9332H10C10.5335 11.9332 10.9677 11.4989 10.9677 10.9654V9.02991C10.9677 8.49627 10.5335 8.06217 10 8.06217H9.67742V6.77185H10C10.5335 6.77185 10.9677 6.33759 10.9677 5.80411H14.5922L15.8825 5.15895H19.0323C19.2102 5.15895 19.3548 5.3037 19.3548 5.48153V7.09443H11.6129V7.73959H19.3548V14.5138C19.3548 14.6915 19.2102 14.8364 19.0323 14.8364Z" fill="#90A0B7"/>
<path d="M15.4839 5.8042H18.7097V6.44936H15.4839V5.8042Z" fill="#90A0B7"/>
<path d="M11.6128 14.1913H18.7096V9.03003H11.6128V14.1913ZM12.258 9.67519H18.0644V13.5462H12.258V9.67519Z" fill="#90A0B7"/>
<path d="M12.9033 10.3203H17.4195V10.9654H12.9033V10.3203Z" fill="#90A0B7"/>
<path d="M12.9033 11.6106H17.4195V12.2558H12.9033V11.6106Z" fill="#90A0B7"/>
<path d="M14.1936 2.90114H19.6774V2.25598H13.5484V2.70174L12.0116 1.9334L13.5484 1.16491V1.61082H18.3871V0.965663H14.1936V0.121094L10.5691 1.9334L14.1936 3.74556V2.90114Z" fill="#90A0B7"/>
<path d="M19.0322 0.965576H19.6774V1.61074H19.0322V0.965576Z" fill="#90A0B7"/>
<path d="M16.1289 17.0946H11.6128V17.7397H16.7741V17.2938L18.3109 18.0623L16.7741 18.8306V18.3849H12.9031V19.0301H16.1289V19.8745L19.7534 18.0623L16.1289 16.25V17.0946Z" fill="#90A0B7"/>
<path d="M11.6128 18.385H12.258V19.0301H11.6128V18.385Z" fill="#90A0B7"/>
</g>
<defs>
<clipPath id="clip0_30025_33361">
<rect width="20" height="20" fill="white"/>
</clipPath>
</defs>
</svg>
