<svg width="20" height="20" viewBox="0 0 20 20" fill="none" xmlns="http://www.w3.org/2000/svg">
<path d="M17.3404 3.22882C17.0749 2.96339 16.6583 2.92425 16.3479 3.1357C15.179 3.93249 9.31553 7.93917 8.68537 8.56928C7.77154 9.48315 7.77154 10.97 8.68537 11.8839C9.14228 12.3408 9.74252 12.5692 10.3427 12.5692C10.9428 12.5692 11.543 12.3408 12 11.8839C12.6301 11.2537 16.6367 5.3903 17.4336 4.22132C17.6449 3.91105 17.6058 3.49433 17.3404 3.22882ZM10.8951 10.779C10.5905 11.0837 10.0948 11.0837 9.79025 10.779C9.48564 10.4744 9.4856 9.97893 9.7901 9.67432C10.0349 9.43237 11.6997 8.2451 13.7479 6.82139C12.3242 8.86959 11.1369 10.5342 10.8951 10.779Z" fill="#0586D7"/>
<path d="M3.60277 13.6338L2.63832 14.1042C1.93262 12.8448 1.5625 11.439 1.5625 10C1.5625 8.94566 1.75691 7.93586 2.11172 7.00457L3.21684 7.53465C3.32582 7.58691 3.44086 7.61168 3.55418 7.61168C3.84531 7.61168 4.1248 7.4482 4.25914 7.16813C4.4457 6.7791 4.28164 6.31242 3.89258 6.12582L2.80148 5.60246C4.15762 3.39074 6.50398 1.84875 9.21879 1.59836V2.7734C9.21879 3.20488 9.56855 3.55465 10 3.55465C10.4315 3.55465 10.7813 3.20488 10.7813 2.7734V1.59777C11.7121 1.6825 12.6127 1.91953 13.4677 2.30547C13.8608 2.48301 14.3236 2.30805 14.5011 1.91488C14.6787 1.5216 14.5038 1.05891 14.1105 0.881367C12.815 0.296562 11.432 0 10 0C7.32891 0 4.8177 1.04016 2.92891 2.92891C1.0402 4.8177 0 7.32891 0 10C0 11.9738 0.585859 13.8935 1.69426 15.5514C1.84355 15.7746 2.09039 15.8985 2.34422 15.8985C2.45961 15.8985 2.57648 15.8729 2.68629 15.8193L4.28785 15.0381C4.67566 14.8489 4.83668 14.3812 4.6475 13.9934C4.45832 13.6056 3.99059 13.4446 3.60277 13.6338Z" fill="#0586D7"/>
<path d="M19.1186 5.88949C18.9411 5.49625 18.4784 5.32125 18.085 5.49886C17.6918 5.6764 17.5169 6.1391 17.6945 6.53234C18.1875 7.62445 18.4375 8.79113 18.4375 9.99994C18.4375 11.4411 18.0661 12.8491 17.3584 14.11L16.3515 13.6305C15.962 13.445 15.4957 13.6104 15.3102 14C15.1247 14.3895 15.2901 14.8557 15.6797 15.0412L17.3203 15.8225C17.4283 15.8739 17.5427 15.8984 17.6558 15.8984C17.9097 15.8984 18.1566 15.7744 18.3057 15.5513C19.4141 13.8934 20 11.9737 20 9.99994C20 8.56796 19.7034 7.185 19.1186 5.88949Z" fill="#0586D7"/>
</svg>
