<svg width="24" height="24" viewBox="0 0 24 24" fill="none" xmlns="http://www.w3.org/2000/svg">
<circle cx="12" cy="12" r="12" fill="#CBCBCB"/>
<g clip-path="url(#clip0_30025_33358)">
<path d="M15.7125 14.6958C15.5104 14.2171 15.2171 13.7822 14.849 13.4155C14.4819 13.0477 14.0471 12.7544 13.5686 12.5519C13.5643 12.5498 13.56 12.5487 13.5557 12.5466C14.2232 12.0644 14.6572 11.2791 14.6572 10.393C14.6572 8.92513 13.4679 7.73584 12 7.73584C10.5322 7.73584 9.34289 8.92513 9.34289 10.393C9.34289 11.2791 9.77682 12.0644 10.4443 12.5476C10.44 12.5498 10.4357 12.5508 10.4315 12.553C9.95146 12.7555 9.52075 13.0458 9.15111 13.4166C8.78329 13.7836 8.49004 14.2184 8.28753 14.6969C8.08859 15.1654 7.9813 15.6677 7.97146 16.1766C7.97118 16.188 7.97318 16.1994 7.97736 16.21C7.98154 16.2207 7.98781 16.2304 7.9958 16.2386C8.00379 16.2467 8.01333 16.2532 8.02387 16.2577C8.03441 16.2621 8.04574 16.2644 8.05718 16.2644H8.70003C8.74718 16.2644 8.78468 16.2269 8.78575 16.1808C8.80718 15.3537 9.13932 14.5791 9.72646 13.9919C10.334 13.3844 11.1407 13.0501 12 13.0501C12.8593 13.0501 13.6661 13.3844 14.2736 13.9919C14.8607 14.5791 15.1929 15.3537 15.2143 16.1808C15.2154 16.228 15.2529 16.2644 15.3 16.2644H15.9429C15.9543 16.2644 15.9657 16.2621 15.9762 16.2577C15.9867 16.2532 15.9963 16.2467 16.0043 16.2386C16.0123 16.2304 16.0185 16.2207 16.0227 16.21C16.0269 16.1994 16.0289 16.188 16.0286 16.1766C16.0179 15.6644 15.9118 15.1662 15.7125 14.6958ZM12 12.2358C11.5082 12.2358 11.0454 12.0441 10.6972 11.6958C10.349 11.3476 10.1572 10.8848 10.1572 10.393C10.1572 9.9012 10.349 9.43834 10.6972 9.09013C11.0454 8.74191 11.5082 8.55013 12 8.55013C12.4918 8.55013 12.9547 8.74191 13.3029 9.09013C13.6511 9.43834 13.8429 9.9012 13.8429 10.393C13.8429 10.8848 13.6511 11.3476 13.3029 11.6958C12.9547 12.0441 12.4918 12.2358 12 12.2358Z" fill="white"/>
</g>
<defs>
<clipPath id="clip0_30025_33358">
<rect width="9.6" height="9.6" fill="white" transform="translate(7.19995 7.19995)"/>
</clipPath>
</defs>
</svg>
